<?xml version="1.0" encoding="UTF-8"?>
<svg width="16px" height="16px" viewBox="0 0 16 16" version="1.1" xmlns="http://www.w3.org/2000/svg" xmlns:xlink="http://www.w3.org/1999/xlink">
    <title>CBA17AA6-2C90-40E0-BF85-4D15BB59F4B9</title>
    <defs>
        <path d="M0,4 L4,4 L4,0 L0,0 L0,4 Z M6,16 L10,16 L10,12 L6,12 L6,16 Z M0,16 L4,16 L4,12 L0,12 L0,16 Z M0,10 L4,10 L4,6 L0,6 L0,10 Z M6,10 L10,10 L10,6 L6,6 L6,10 Z M12,0 L12,4 L16,4 L16,0 L12,0 Z M6,4 L10,4 L10,0 L6,0 L6,4 Z M12,10 L16,10 L16,6 L12,6 L12,10 Z M12,16 L16,16 L16,12 L12,12 L12,16 Z" id="path-1"></path>
    </defs>
    <g id="Client-Portal-v2" stroke="none" stroke-width="1" fill="none" fill-rule="evenodd">
        <g id="MY-SUPPLIERS-Table" transform="translate(-1194.000000, -386.000000)">
            <g id="Group-4" transform="translate(1190.000000, 382.000000)">
                <g id="icon/navigation/menu_24px" transform="translate(4.000000, 4.000000)">
                    <mask id="mask-2" fill="white">
                        <use xlink:href="#path-1"></use>
                    </mask>
                    <use id="-↳Color" fill="#000000" xlink:href="#path-1"></use>
                </g>
            </g>
        </g>
    </g>
</svg>